<svg xmlns="http://www.w3.org/2000/svg" xml:space="preserve" width="100px" height="100px" version="1.1" style="shape-rendering:geometricPrecision; text-rendering:geometricPrecision; image-rendering:optimizeQuality; fill-rule:evenodd; clip-rule:evenodd"
viewBox="0 0 100 100"
 xmlns:xlink="http://www.w3.org/1999/xlink">
  <path fill="#232323" d="M80.09 45.07c1.29,1.25 2.09,3 2.09,4.93 0,1.78 -0.68,3.51 -1.94,4.78l-4.96 4.96 -10.91 10.91 -21.82 21.82c-2.68,2.67 -7.06,2.67 -9.74,0l0 0c-2.67,-2.68 -2.67,-7.06 0,-9.74l32.73 -32.73 -32.73 -32.73c-2.67,-2.68 -2.67,-7.06 0,-9.73l0 0c2.68,-2.68 7.06,-2.68 9.74,-0.01l32.73 32.73c1.6,1.6 3.2,3.21 4.81,4.81z"/>
</svg>
