<svg xmlns="http://www.w3.org/2000/svg" xml:space="preserve" width="100px" height="100px" version="1.1" style="shape-rendering:geometricPrecision; text-rendering:geometricPrecision; image-rendering:optimizeQuality; fill-rule:evenodd; clip-rule:evenodd"
viewBox="0 0 100 100"
 xmlns:xlink="http://www.w3.org/1999/xlink">
  <rect fill="none" width="100" height="100"/>
  <path fill="#333333" d="M92.34 7.66l0 0c-2.77,-2.77 -7.31,-2.77 -10.08,0l-32.26 32.26 -32.26 -32.26c-2.77,-2.77 -7.31,-2.77 -10.08,0l0 0c-2.77,2.77 -2.77,7.31 0,10.08l32.26 32.26 -32.26 32.26c-2.77,2.77 -2.77,7.31 0,10.08l0 0c2.77,2.77 7.31,2.77 10.08,0l32.26 -32.26 32.26 32.26c2.77,2.77 7.31,2.77 10.08,0l0 0c2.77,-2.77 2.77,-7.31 0,-10.08l-32.26 -32.26 32.26 -32.26c2.77,-2.77 2.77,-7.31 0,-10.08z"/>
</svg>
