<?xml version="1.0" encoding="UTF-8"?>
<!DOCTYPE svg PUBLIC "-//W3C//DTD SVG 1.1//EN" "http://www.w3.org/Graphics/SVG/1.1/DTD/svg11.dtd">
<!-- Creator: CorelDRAW 2019 (64-Bit) -->
<svg xmlns="http://www.w3.org/2000/svg" xml:space="preserve" width="100px" height="97px" version="1.1" style="shape-rendering:geometricPrecision; text-rendering:geometricPrecision; image-rendering:optimizeQuality; fill-rule:evenodd; clip-rule:evenodd"
viewBox="0 0 1.16 1.12"
 xmlns:xlink="http://www.w3.org/1999/xlink">
 <defs>
  <style type="text/css">
    .fil11 {fill:#1A1A1A}
    .fil2 {fill:#3C4B58}
    .fil3 {fill:#858D8E}
    .fil8 {fill:#A4A9AA}
    .fil10 {fill:#B24E51}
    .fil6 {fill:#B5BABB}
    .fil0 {fill:#CDCDCD}
    .fil9 {fill:#EB9EA2}
    .fil7 {fill:#EBB678}
    .fil5 {fill:#ECCB5D}
    .fil1 {fill:#FEC7C4}
    .fil4 {fill:white}
    .fil12 {fill:white}
  </style>
 </defs>
 <g id="Слой_x0020_1">
  <metadata id="CorelCorpID_0Corel-Layer"/>
  <g id="_1333061448224">
   <path class="fil0" d="M0.84 0.51c-0.02,0 -0.05,0 -0.06,-0.01 0,0 0,0 0,0 0,0 0,0 0,0 0,0 0,0 0,0 0,-0.01 -0.01,-0.02 0,-0.03 0.01,-0.01 0.03,-0.01 0.04,-0.01 0.01,0 0.02,0 0.03,0 0,0 0.01,0 0.01,0 0.01,0 0.01,0 0.02,0.01 0,0 0,0 0.01,0.01 0,0.01 0,0.01 -0.01,0.02 0,0 0,0 0,0 -0.01,0.01 0,0 -0.01,0.01 0,0 0,0 -0.01,0 0,0 -0.01,0 -0.02,0zm-0.03 -0.14c-0.01,0.01 -0.01,0.02 -0.02,0.03 -0.02,0.03 -0.04,0.03 -0.07,0.01 -0.04,-0.03 0.01,-0.12 0.07,-0.06l0.02 0.02zm-0.31 -0.05c0,0 0.01,-0.01 0.01,-0.01 0,0 0,0 0.01,0 0.01,-0.01 0.02,-0.02 0.04,-0.02 0.02,0.01 0.04,0.04 0.03,0.06 0,0.02 -0.01,0.02 -0.02,0.03 -0.03,0.01 -0.05,0 -0.06,-0.02 -0.01,-0.01 -0.01,-0.02 -0.01,-0.02 0,-0.01 0,-0.01 0,-0.02zm0.54 -0.08c-0.01,0 0,0 -0.01,0 -0.01,0 0,0 0,0 -0.01,0 -0.04,-0.01 -0.06,-0.02l-0.01 -0.02c0,-0.01 -0.01,-0.01 -0.01,-0.02 -0.02,-0.01 0.01,-0.02 0.03,-0.03 0,0 0,0 0.01,0 0.01,-0.01 0.03,-0.02 0.05,-0.02 0.02,0.01 0.02,0.05 0.02,0.06 0,0.01 -0.01,0.05 -0.01,0.06 -0.01,0 -0.01,0 -0.01,-0.01zm-0.55 -0.2l0.01 0.01c0.02,0 0.01,0 0.02,0.01 0,0 0.01,0.02 0.02,0.03 0,0 0,0 0,0 0,0.01 0,0.01 0,0.01 0.01,0.01 0,0 0.01,0.01l0 0.02c0.01,0 0.01,0.01 0.01,0.01 0,0.02 -0.01,0.01 -0.01,0.01l-0.01 0c0,0 0,0 0,0l-0.01 0.01c0,0 0,0 0,0 0,0 0,0 0,0 0,0 0,0 -0.01,0 0,0 -0.01,0.01 -0.02,0.01 0,0 0,0 -0.01,0 0,0.01 0.01,0.02 0.01,0.03 0,0.01 -0.01,0.02 -0.01,0.02 -0.02,0.03 -0.04,0.08 -0.04,0.11 0,0.02 -0.01,0.06 0,0.08 0.01,0.02 0.01,0.04 0.02,0.04 0,0.01 0.01,0.01 0.01,0.02 0,0 0,0 0.01,0 0,0.01 0,0.01 0,0.01 0.02,-0.08 0.08,-0.11 0.17,-0.08 0.05,0.02 0.08,0.05 0.09,0.11 0.01,0.03 0,0.05 0,0.06 0.07,0 0.1,-0.04 0.11,-0.02 0,0.01 -0.01,0.01 -0.01,0.02 -0.01,0 -0.04,0.01 -0.04,0.01 0,0 0,0 0.01,0.01 0,0.01 0,0.01 0,0.02 0.04,-0.01 0.04,-0.03 0.06,-0.03 0,0 0.01,0.01 0,0.02 0,0.01 -0.02,0.01 -0.03,0.02 -0.01,0 -0.02,0.01 -0.02,0.01 -0.01,0 -0.02,0 -0.03,0 0.01,0 0.01,0 0.02,0.01 0.01,0 0.02,0.01 0.02,0.03 0.01,0.01 0.01,0.04 0.01,0.06 0,0 0,0 0.01,0l0.03 -0.01 0.01 -0.03c0.01,0 0.01,0.03 0.01,0.04 0.01,0.02 0,0.03 0,0.05l0.01 0c0,-0.01 0,-0.02 0.01,-0.03 0,0 0,-0.01 0,-0.02 0.01,-0.03 0,-0.03 0.01,-0.05 0,0 0,0 0,0.01 0.01,0 0.01,0.01 0.01,0.02 0.01,0 0.02,0 0.02,-0.01l0.02 0c0,0.03 0,0.03 -0.01,0.06l-0.01 0c0,0.01 0,0 0,0.01 0,0.01 -0.02,0.02 -0.03,0.02 -0.01,0.01 -0.03,0.01 -0.04,0.02 -0.03,0 -0.06,0 -0.1,0 0,0 0,0 0.01,0l0.01 0.01c0,0 0.01,0.01 0.01,0.02 0,0 0.01,0.01 0.01,0.02 0,0.02 0.01,0.04 0.01,0.06 0,0.03 -0.01,0.08 -0.03,0.11 0.01,0 0,0 0.01,-0.01l0.03 -0.01c0.03,-0.01 0.04,-0.02 0.07,-0.04l0.02 -0.01c0,0 0,0 0,-0.01 0,-0.02 -0.02,-0.07 -0.03,-0.08 0,-0.01 -0.01,-0.02 -0.01,-0.03 0.03,0 0.07,0.07 0.08,0.09l0.02 0.04c0,0 0,0 0.01,0 0,-0.01 -0.02,-0.08 -0.02,-0.1 -0.01,-0.02 -0.01,-0.04 -0.02,-0.06 -0.01,0 -0.01,-0.01 -0.01,-0.02 0.03,0 0.06,0.07 0.07,0.09 0.01,0.01 0.01,0.02 0.01,0.02 0.01,-0.03 0.01,-0.06 0,-0.08 0,-0.01 -0.02,-0.03 -0.01,-0.04 0.02,0 0.02,0.02 0.03,0.03 0,-0.01 0.01,-0.02 0.01,-0.02 0.03,-0.05 0.03,-0.1 0.02,-0.15 0,-0.02 -0.02,-0.05 0.01,-0.05 -0.01,0 -0.01,0 -0.01,-0.01 0,0 0,0 0.01,-0.01 -0.01,0 -0.02,0 -0.01,-0.01 0,-0.01 0.01,-0.01 0.02,-0.01 0,0 0,-0.01 -0.01,-0.01 -0.01,-0.01 0,-0.01 0,-0.02 0,0 -0.03,-0.01 -0.04,-0.01 -0.02,0 -0.05,-0.01 -0.07,-0.02 -0.01,0 -0.02,-0.01 -0.02,-0.02 0.01,-0.01 0.11,0 0.15,-0.01 0,-0.01 0,-0.02 0,-0.03l0 0c-0.03,0 -0.07,0 -0.1,-0.01 -0.01,0 -0.03,-0.01 -0.03,-0.02 0.02,0 0.05,-0.01 0.07,-0.01 0.02,-0.01 0.05,-0.01 0.06,-0.02l0 -0.02c0.01,-0.02 0,-0.06 -0.01,-0.08 0,-0.03 -0.01,-0.05 -0.02,-0.07l0 0.01c0,0 0,0.01 0,0.01 -0.01,0.02 -0.01,0.06 -0.03,0.04 0,0 0,-0.02 0,-0.04 0.01,-0.04 0.01,-0.09 -0.01,-0.12 0,-0.02 -0.02,-0.02 -0.04,-0.02 -0.02,0 -0.05,0.01 -0.06,0.01 -0.01,0 -0.02,0.01 -0.03,0.01 0,0 -0.02,0.01 -0.02,0 0,-0.02 0.02,-0.02 0.04,-0.03 -0.01,0 -0.04,-0.01 -0.05,-0.02 0,0.01 0,0.01 -0.01,0.01 -0.01,0.01 -0.03,0.03 -0.04,0.04 -0.01,0 -0.02,0.01 -0.03,0.02 -0.04,0.03 -0.05,-0.01 0.02,-0.08l-0.04 0c0,0 0,0 0,0 -0.02,0.02 -0.02,0.02 -0.04,0.04 0,0.01 -0.01,0.01 -0.01,0.02l-0.03 0.03c0,0.01 -0.01,0.02 -0.03,0.02 -0.01,-0.01 0,-0.04 0.01,-0.06 0,-0.01 0.02,-0.04 0.03,-0.05 -0.01,0 0,0 -0.01,0l-0.02 0c0,0 0,0 0,0l-0.02 0.02c0,0.01 -0.01,0.01 -0.02,0.02 0,0.01 -0.01,0.01 -0.01,0.02 -0.01,0.01 -0.01,0.01 -0.02,0.01 -0.01,-0.01 -0.01,-0.01 -0.01,-0.02 0.01,-0.01 0.01,-0.02 0.01,-0.03l0 0c0,0.01 -0.01,0.01 -0.02,0.01 0,0 0,-0.01 0,-0.02 0,0 0.02,-0.01 0.02,-0.01 -0.01,-0.01 -0.05,-0.02 -0.07,-0.02 -0.01,0 -0.03,0 -0.04,0 -0.02,0.01 -0.02,0.01 -0.03,0.02z"/>
   <path class="fil1" d="M0.45 0.4c0,0.01 0.01,0.05 0.02,0.05 0.01,0 0.02,0 0.03,-0.01 0.01,-0.02 0,-0.03 -0.01,-0.04 -0.01,0 -0.02,0 -0.04,0l0 0z"/>
   <path class="fil2" d="M0.44 0.66c0.01,0 0.02,-0.01 0.02,-0.01l0.03 -0.02c0.01,0 0.02,0 0.03,0.01 0.01,0.01 0.02,0 0.03,0.01 0.02,0 0.02,0.02 0.03,0.02 0.01,0 0.01,-0.01 0.05,0 -0.01,0.01 -0.01,0.02 -0.01,0.05 -0.06,0.01 -0.12,-0.01 -0.16,-0.04 -0.01,-0.01 -0.01,-0.01 -0.02,-0.02zm0.02 -0.04c0,0 -0.02,-0.03 -0.02,-0.02 0,0 0,0.01 0,0.01 0.01,0.01 0.01,0.01 0.01,0.02 -0.01,0.01 -0.04,0.03 -0.05,0.03 -0.01,0 -0.02,-0.03 -0.02,-0.04 -0.01,0 -0.01,0.01 -0.01,0.01l-0.01 0c0,-0.01 -0.01,-0.02 -0.02,-0.02 -0.03,-0.02 -0.04,-0.01 -0.03,-0.03 0.01,-0.06 0.11,-0.08 0.16,-0.04 0.02,0.02 0.01,0.07 -0.01,0.08zm0 -0.15c0,0 0.01,0.01 0.01,0.02 0.01,0.01 0.01,0.01 0.02,0.02l-0.01 0.01c-0.02,-0.01 -0.01,-0.01 -0.06,-0.02 0,-0.01 0.02,-0.03 0.04,-0.03zm-0.4 0.54l0 0c0.01,0.01 0.02,0.03 0.03,0.04 0.05,0.03 0.14,0.03 0.2,0.03 0.04,0 0.08,0 0.13,-0.02 0.06,-0.02 0.09,-0.05 0.1,-0.05 0.06,0.04 0.18,0.08 0.26,0.08 0.08,0.01 0.14,-0.01 0.2,-0.05 0.01,-0.01 0.01,-0.02 0.02,-0.02l0.02 -0.03c0.01,0 0.01,0 0.01,-0.01 0.03,-0.04 0.05,-0.08 0.05,-0.13 -0.01,-0.02 -0.01,-0.02 0,-0.03 0.04,-0.05 0.06,-0.12 0.05,-0.18 -0.01,-0.01 -0.01,-0.04 -0.02,-0.05 -0.03,0 -0.01,0.03 -0.01,0.05 0.01,0.05 0.01,0.1 -0.02,0.15 0,0 -0.01,0.01 -0.01,0.02 -0.01,-0.01 -0.01,-0.03 -0.03,-0.03 -0.01,0.01 0.01,0.03 0.01,0.04 0.01,0.02 0.01,0.05 0,0.08 0,0.01 -0.02,0.06 -0.03,0.07 -0.01,0 -0.01,0 -0.01,0 -0.01,0.01 -0.02,0.02 -0.02,0.03 -0.01,0 -0.01,0.01 -0.01,0.01 -0.01,0 -0.01,0.01 -0.02,0.01 -0.01,0.01 -0.01,0.01 -0.03,0.03 -0.04,0.02 -0.07,0.02 -0.11,0.02 -0.01,0.01 -0.05,0.01 -0.06,0 -0.02,0 -0.06,-0.01 -0.08,-0.02 -0.04,-0.01 -0.12,-0.03 -0.15,-0.05 -0.01,-0.01 0,-0.01 -0.02,-0.02 0,0.01 0,0.01 -0.01,0.02 -0.01,0.01 -0.03,0.02 -0.05,0.02 0,0.01 -0.04,0.02 -0.05,0.03 -0.02,0 -0.07,0.01 -0.1,0.01 -0.01,0 -0.02,0 -0.03,0 -0.01,0 -0.02,0 -0.03,0 -0.02,0 -0.08,-0.01 -0.1,-0.01 -0.03,-0.01 -0.05,-0.03 -0.06,-0.05 -0.01,-0.02 -0.01,-0.03 -0.01,-0.05 0,-0.01 0.01,-0.03 0.02,-0.04 0,-0.01 0.02,-0.02 0.03,-0.03 0.02,-0.01 0.03,-0.01 0.05,-0.01 0.01,0 0.06,0.01 0.07,0.02l0.05 0.01c0.02,0 0.04,0.01 0.06,0.01 0.02,0 0.04,0 0.05,-0.01 0.01,0 0.02,0 0.03,-0.01 0,0 0.01,0 0.01,-0.01 -0.01,-0.01 -0.01,-0.01 -0.02,-0.01 -0.04,0.01 -0.04,0.02 -0.09,0.01 -0.02,0 -0.05,0 -0.07,-0.01 -0.01,0 -0.01,0 -0.01,-0.01 -0.02,-0.05 -0.06,-0.18 -0.02,-0.22 0.02,-0.03 0.07,-0.03 0.11,-0.01 0.04,0.02 0.05,0.07 0.06,0.12 0,0.01 0,0.01 0.01,0.02 0.01,0 0.02,-0.01 0.02,-0.02 -0.01,-0.02 -0.01,-0.03 -0.02,-0.05 0,-0.01 -0.01,-0.01 -0.01,-0.02 0.01,0 0.02,-0.01 0.03,-0.01 0.03,0.04 0.09,0.07 0.17,0.06l-0.01 0.02c-0.02,0.01 -0.02,0.02 -0.03,0.04 0,0.04 0,0.07 0.01,0.11 0,0.02 0.01,0.04 0.02,0.06 0,0.01 0.01,0.02 0.01,0.02 0,0 0,0.02 0.01,0.02 0.01,0.02 0.04,0.04 0.06,0.04 0.01,0 0.01,0 0.01,-0.01 -0.01,-0.01 -0.06,-0.01 -0.08,-0.11 -0.01,-0.03 -0.02,-0.06 -0.02,-0.1 0,-0.08 0.07,-0.1 0.12,-0.06 0.04,0.02 0.06,0.05 0.06,0.1 0.01,0.02 0,0.04 0.02,0.04 0.01,0 0.01,-0.03 0,-0.04 0,-0.02 0,-0.03 -0.01,-0.05l0.03 0c0.04,0 0.07,0 0.1,0 0.01,-0.01 0.03,-0.01 0.04,-0.02 0.01,0 0.03,-0.01 0.03,-0.02 -0.01,-0.01 -0.01,-0.01 -0.02,0 -0.01,0 -0.02,0.01 -0.03,0.01l-0.01 0 -0.03 0.01c-0.02,0 -0.03,0 -0.05,0 -0.01,0 -0.05,0 -0.06,0 -0.01,0 -0.01,-0.01 -0.03,-0.04 -0.03,-0.01 -0.06,-0.03 -0.09,-0.03l-0.01 0c0,0 0,0 0,0l0 0c0,-0.04 0.02,-0.03 0.03,-0.04 0,-0.01 0,-0.01 -0.01,-0.01 -0.01,0.01 -0.01,0.01 -0.02,0.01 0.02,-0.06 0.06,-0.05 0.11,-0.05 0.01,0 0.02,0 0.03,0 0.01,0 0.02,0 0.02,0 0.01,0 0.02,0 0.03,0 0,0 0.01,-0.01 0.02,-0.01 0.01,-0.01 0.03,-0.01 0.03,-0.02 0.01,-0.01 0,-0.02 0,-0.02 -0.02,0 -0.02,0.02 -0.06,0.03 -0.05,0.01 -0.07,0 -0.11,0l-0.01 -0.02c0.02,0 0.04,0 0.06,0 0.01,0 0.04,-0.01 0.05,-0.01 0,0 0.03,-0.01 0.04,-0.01 0,-0.01 0.01,-0.01 0.01,-0.02 -0.01,-0.02 -0.04,0.02 -0.11,0.02 -0.01,0 -0.04,0 -0.05,0l-0.02 -0.1c-0.01,0 -0.01,0 -0.02,-0.01l0.02 0.08 0.01 0.06 0 0.01c-0.01,0 -0.02,0.01 -0.04,0.01 -0.01,0.01 -0.01,0.03 -0.02,0.03l-0.01 0c-0.01,0 -0.02,0 -0.03,0 -0.01,0 -0.01,0 -0.02,-0.01 0,0 0,0 -0.01,0 -0.02,-0.01 -0.02,-0.01 -0.03,-0.01 -0.01,0 -0.01,-0.01 -0.03,-0.02l0 0c0,-0.01 0.01,-0.03 0,-0.05 0,-0.02 0,-0.02 -0.01,-0.03 0,0 0.01,-0.01 0.02,-0.02l0.06 -0.06c0,-0.01 0,0 0,-0.01 -0.01,0 -0.01,0 -0.02,0 -0.01,0.01 -0.01,0.02 -0.02,0.03 -0.01,0.01 -0.02,0.01 -0.02,0.02 -0.01,0 -0.02,-0.01 -0.02,-0.01 0,0 0,0 0,-0.01 -0.01,0 -0.01,0 -0.01,0 -0.03,-0.05 -0.04,-0.08 -0.03,-0.14 0,-0.03 0.02,-0.08 0.04,-0.11 0,0 0.01,-0.01 0.01,-0.02 0,-0.01 -0.01,-0.02 -0.01,-0.03 0,-0.05 -0.01,-0.09 0,-0.13 0.01,-0.01 0.01,-0.01 0.03,-0.02 0.01,0 0.03,0 0.04,0 0.02,0 0.06,0.01 0.07,0.02 0,0 -0.02,0.01 -0.02,0.01 0,0.01 0,0.02 0,0.02 0.01,0 0.02,0 0.02,-0.01 0.01,0 0.02,-0.01 0.03,-0.01 0.02,0 0.03,-0.01 0.04,-0.01l0.02 0c0.01,-0.01 0.07,0 0.08,0l0.04 0c0.01,0 0.05,0.01 0.06,0.01 0.01,0.01 0.04,0.02 0.05,0.02 -0.02,0.01 -0.04,0.01 -0.04,0.03 0,0.01 0.02,0 0.02,0 0.01,0 0.02,-0.01 0.03,-0.01 0.01,0 0.04,-0.01 0.06,-0.01 0.02,0 0.04,0 0.04,0.02 0.02,0.03 0.02,0.08 0.01,0.12 0,0.02 0,0.04 0,0.04 0.02,0.02 0.02,-0.02 0.03,-0.04 0,0 0,-0.01 0,-0.01l0 -0.01c0.01,0.02 0.02,0.04 0.02,0.07 0.01,0.02 0.02,0.06 0.01,0.08 0.01,0.01 0,0.08 0,0.08 0,0.01 0,0.02 0,0.03l-0.02 0.04c0,0.01 0,0.01 0,0.01 0,0 0,0 0,0.01 0,0 0,-0.01 0,0l0 0c0,0.01 -0.01,0.01 0,0.02 0.01,0 0.01,0.01 0.01,0.01 -0.01,0 -0.02,0 -0.02,0.01 -0.01,0.01 0,0.01 0.01,0.01 0.01,0.01 0.02,0.01 0.03,0.01 0.04,0 0,-0.04 -0.01,-0.05 0,-0.01 0.01,-0.03 0.01,-0.05 0.03,-0.09 0.02,-0.22 -0.03,-0.3 -0.02,-0.03 -0.01,-0.01 -0.01,-0.04 -0.01,-0.07 -0.04,-0.09 -0.11,-0.08 -0.01,0 -0.02,0 -0.04,-0.01 -0.08,-0.03 -0.18,-0.04 -0.27,-0.03 -0.01,0.01 -0.01,0.01 -0.02,0 -0.04,-0.01 -0.09,-0.02 -0.13,-0.02 -0.04,0 -0.06,0.02 -0.06,0.06 -0.01,0.03 0,0.08 0,0.11 0.01,0.04 0.01,0.02 0,0.04 -0.04,0.06 -0.06,0.13 -0.04,0.2 0.01,0.02 0.01,0.03 0.02,0.04 -0.02,0.01 -0.04,0.03 -0.05,0.03 -0.01,0.02 -0.01,0.02 -0.02,0.02 -0.03,0.01 -0.06,0.02 -0.07,0.04 -0.02,0.02 -0.02,0.02 -0.02,0.05 -0.03,0 -0.06,0.01 -0.08,0.03 -0.01,0.02 -0.02,0.04 -0.02,0.08 0,0.03 0,0.06 0.01,0.08 0,0.02 0.01,0.03 0.01,0.04 0.01,0.02 0.01,0.03 0.01,0.04 -0.02,0 -0.04,-0.01 -0.07,-0.01 -0.05,0.01 -0.09,0.04 -0.1,0.08 0,0.02 0,0.06 0.01,0.08z"/>
   <path class="fil3" d="M0.06 1.01c0,0 0,0 -0.01,0 -0.06,0.02 -0.08,0.05 0.01,0.07 0.06,0.01 0.12,0.02 0.17,0.03 0.23,0.02 0.53,0.02 0.75,-0.01 0.17,-0.03 0.24,-0.07 0.06,-0.1 0,0 -0.01,0 -0.01,0 -0.01,0 -0.01,-0.01 -0.01,-0.01l-0.02 0.03c-0.01,0 -0.01,0.01 -0.02,0.02 -0.06,0.04 -0.12,0.06 -0.2,0.05 -0.08,0 -0.2,-0.04 -0.26,-0.08 -0.01,0 -0.04,0.03 -0.1,0.05 -0.05,0.02 -0.09,0.02 -0.13,0.02 -0.06,0 -0.15,0 -0.2,-0.03 -0.01,-0.01 -0.02,-0.03 -0.03,-0.04l0 0z"/>
   <path class="fil4" d="M0.64 0.9c-0.01,0 -0.01,0.03 -0.03,0.02 -0.01,-0.02 0,-0.06 0.03,-0.06 0.02,0 0.04,0.01 0.04,0.03 0.01,0.02 0,0.02 -0.01,0.02 0,-0.01 -0.01,-0.01 -0.01,-0.01 0,0 -0.01,0 -0.01,0 0,0 -0.01,0 -0.01,0zm-0.05 -0.05c-0.01,-0.03 0.02,-0.04 0.02,-0.01 0.01,0.03 -0.02,0.04 -0.02,0.01zm0.08 -0.05c0.03,-0.02 0.03,0.04 0.01,0.05 -0.02,0.01 -0.03,-0.04 -0.01,-0.05zm-0.04 -0.04c0.02,-0.01 0.03,0.05 0.01,0.06 -0.03,0.01 -0.04,-0.05 -0.01,-0.06zm0.04 0.28l0.01 0.01c0.02,0.01 0.06,0.02 0.08,0.02 0.02,0 0.03,-0.01 0.04,-0.02 0,0 0,0 0,0 0.01,-0.01 0.02,-0.02 0.02,-0.02 0.02,-0.03 0.03,-0.08 0.03,-0.11 0,-0.02 -0.01,-0.04 -0.01,-0.06 0,-0.01 -0.01,-0.02 -0.01,-0.02 0,-0.01 -0.01,-0.02 -0.01,-0.02l-0.01 -0.01c-0.01,0 -0.01,0 -0.01,0l-0.03 0c0.01,0.02 0.01,0.03 0.01,0.05 0.01,0.01 0.01,0.04 0,0.04 -0.02,0 -0.01,-0.02 -0.02,-0.04 0,-0.05 -0.02,-0.08 -0.06,-0.1 -0.05,-0.04 -0.12,-0.02 -0.12,0.06 0,0.04 0.01,0.07 0.02,0.1 0.02,0.1 0.07,0.1 0.08,0.11 0,0.01 0,0.01 -0.01,0.01z"/>
   <path class="fil4" d="M0.26 0.73c0.04,-0.01 0.07,0.06 0.05,0.06 -0.01,-0.01 -0.02,-0.01 -0.03,-0.02 -0.01,0 -0.02,0.01 -0.02,0.02 -0.01,0.01 -0.02,0.01 -0.02,0 -0.01,-0.02 0.01,-0.05 0.02,-0.06zm-0.03 -0.03c0.02,-0.01 0.02,0.04 0,0.05 -0.02,0 -0.02,-0.04 0,-0.05zm0.07 -0.03c0.03,-0.01 0.03,0.05 0.01,0.06 -0.02,0 -0.03,-0.05 -0.01,-0.06zm-0.04 -0.04c0.02,-0.01 0.03,0.06 0.01,0.07 -0.03,0 -0.03,-0.04 -0.02,-0.05 0,-0.01 0,-0.01 0.01,-0.02zm0.16 0.24c0,-0.04 0,-0.06 0,-0.1l-0.01 0c-0.01,-0.01 -0.01,-0.01 -0.01,-0.02 -0.01,-0.05 -0.02,-0.1 -0.06,-0.12 -0.04,-0.02 -0.09,-0.02 -0.11,0.01 -0.04,0.04 0,0.17 0.02,0.22 0,0.01 0,0.01 0.01,0.01 0.02,0.01 0.05,0.01 0.07,0.01 0.05,0.01 0.05,0 0.09,-0.01z"/>
   <path class="fil4" d="M0.83 0.79c0.01,-0.01 0.01,-0.01 0.01,-0.03 0.01,-0.01 0.01,-0.02 0.01,-0.03 0,-0.02 0,-0.05 -0.01,-0.06 0,-0.02 -0.01,-0.03 -0.02,-0.03 -0.01,-0.01 -0.01,-0.01 -0.02,-0.01 0,0 -0.01,0 -0.02,0 -0.01,0 -0.02,0 -0.03,0 -0.05,0 -0.09,-0.01 -0.11,0.05 0.01,0 0.01,0 0.02,-0.01 0.01,0 0.01,0 0.01,0.01 -0.01,0.01 -0.03,0 -0.03,0.04l0 0c0,0 0,0 0,0l0.01 0c0.03,0 0.06,0.02 0.09,0.03 0.02,0.03 0.02,0.04 0.03,0.04 0.01,0 0.05,0 0.06,0z"/>
   <path class="fil5" d="M0.63 0.53c0,0.01 -0.01,0.03 -0.03,0.02 -0.02,0 -0.03,-0.03 -0.01,-0.05 0.03,-0.03 0.05,0 0.04,0.03zm-0.06 -0.09c0,0.01 0,0 0,0.01l-0.06 0.06c-0.01,0.01 -0.02,0.02 -0.02,0.02 0.01,0.01 0.01,0.01 0.01,0.03 0.01,0 0.02,0 0.03,0.01 0,0 0.01,0.01 0.01,0.02 0,0.01 0,0.03 -0.01,0.04 0.01,0 0.01,0 0.03,0.01 0.01,-0.01 0,-0.01 0.01,-0.02 0.02,-0.01 0.04,-0.01 0.05,0 0.01,0.01 0,0.02 0,0.03l0.01 0c0.01,0 0.01,-0.02 0.02,-0.03 0.02,0 0.03,-0.01 0.04,-0.01l0 -0.01c-0.01,0 -0.02,0.01 -0.03,0 -0.01,0 -0.02,-0.01 -0.02,-0.02 -0.01,-0.03 0.01,-0.05 0.04,-0.04l-0.02 -0.08c0,0 0,0 -0.01,0 0,0 0,0 -0.01,0 0,0 0,0 0,-0.01 0,0 0,0 -0.01,0l-0.01 -0.01c0,0 0,0 0,0 -0.02,-0.01 -0.02,0.01 -0.04,0 -0.01,0 0,0 -0.01,0z"/>
   <path class="fil0" d="M0.41 0.77l0.01 0c0,0.04 0,0.06 0,0.1 0.01,0 0.01,0 0.02,0.01 0.01,0.01 0,0 0.01,0.01 0.01,0 0.02,0.01 0.02,0.02 0.01,0 0.01,0 0.01,0.01 0.01,0.01 0.02,0.02 0.02,0.03 0.01,0 0,0 0.01,0 0,-0.01 0,-0.01 0,-0.01 0.01,0 0.01,0 0.02,0.01l0.06 0.03c0,0 0,0 0,0 0.01,0 0,0 0.01,0 0,0 -0.01,-0.01 -0.01,-0.02 -0.01,-0.02 -0.02,-0.04 -0.02,-0.06 -0.01,-0.04 -0.01,-0.07 -0.01,-0.11 -0.01,0 -0.02,0.01 -0.04,0 -0.03,0 -0.05,-0.01 -0.08,-0.03 -0.01,0 -0.01,-0.01 -0.01,-0.01 0,0.01 -0.01,0.02 -0.02,0.02z"/>
   <path class="fil4" d="M0.49 0.48c0,0 0.01,0.01 0.02,0.01 0,-0.01 0.01,-0.01 0.02,-0.02 0.01,-0.01 0.01,-0.02 0.02,-0.03 0,0 -0.02,0 -0.01,-0.01 0.01,-0.01 0.03,0.02 0.07,0 0,-0.01 -0.02,-0.02 -0.01,-0.03 0,0 0,0 0,0 0.01,0 0.01,-0.01 0.03,0 0.01,0 0.01,0.01 0.01,0.01 0,0 0,0 0.01,0 0.01,0.02 -0.02,0.02 -0.03,0.02 0.01,0.02 0.07,0.03 0.07,0.03 0,0 0.01,0.01 -0.01,0.01l0 0 0.02 0.1c0.01,0 0.04,0 0.05,0 0,-0.01 0.01,-0.03 0,-0.06 -0.01,-0.06 -0.04,-0.09 -0.09,-0.11 -0.09,-0.03 -0.15,0 -0.17,0.08z"/>
   <path class="fil4" d="M0.46 0.62c0.02,-0.01 0.03,-0.06 0.01,-0.08 -0.05,-0.04 -0.15,-0.02 -0.16,0.04 -0.01,0.02 0,0.01 0.03,0.03 0.01,0 0.02,0.01 0.02,0.02l0.01 0c0,0 0,-0.01 0.01,-0.01 0,0.01 0.01,0.04 0.02,0.04 0.01,0 0.04,-0.02 0.05,-0.03 0,-0.01 0,-0.01 -0.01,-0.02 0,0 0,-0.01 0,-0.01 0,-0.01 0.02,0.02 0.02,0.02z"/>
   <path class="fil3" d="M0.17 0.99c-0.01,0.01 -0.01,0.02 -0.02,0.03 0,0.01 0,0.01 0,0.01 -0.01,0.01 -0.01,0.01 -0.01,0.02 0.02,0 0.08,0.01 0.1,0.01 0,-0.01 0.01,-0.02 0.01,-0.02 0,-0.01 0,-0.02 0,-0.03 0,-0.01 0.01,-0.02 0.01,-0.03 0,-0.02 0,-0.03 -0.01,-0.04 0,-0.01 0,-0.03 -0.01,-0.04 0,0 0,-0.01 0,-0.01 -0.01,0 0,0 -0.01,0l0.01 0c-0.01,-0.01 -0.06,-0.02 -0.07,-0.02 0,0.01 0.01,0.02 0.01,0.03 0,0.01 0,0.02 0,0.04 0,0.01 -0.01,0.04 -0.01,0.05z"/>
   <path class="fil4" d="M0.43 0.75c0,0 0,0.01 0.01,0.01 0.03,0.02 0.05,0.03 0.08,0.03 0.02,0.01 0.03,0 0.04,0 0.01,-0.02 0.01,-0.03 0.03,-0.04l0.01 -0.02c-0.08,0.01 -0.14,-0.02 -0.17,-0.06 -0.01,0 -0.02,0.01 -0.03,0.01 0,0.01 0.01,0.01 0.01,0.02 0.01,0.02 0.01,0.03 0.02,0.05z"/>
   <path class="fil3" d="M0.32 0.99c0,0.01 0,0.03 0,0.04l-0.01 0.03c0,0 0,0 -0.01,0 0.03,0 0.08,-0.01 0.1,-0.01 0,-0.02 0,-0.05 -0.01,-0.06 0,-0.04 -0.04,-0.08 -0.04,-0.08 -0.02,0 -0.04,-0.01 -0.06,-0.01 0,0.01 0,0.01 0.01,0.02 0,0.01 0,0.01 0.01,0.02 0,0.01 0.01,0.03 0.01,0.05z"/>
   <path class="fil6" d="M0.82 1.03c0,0 -0.01,0.01 -0.02,0.02 0,0 0,0 0,0 -0.01,0.01 -0.02,0.02 -0.04,0.02 0.01,0.01 0.05,0.01 0.06,0 0.04,0 0.07,0 0.11,-0.02 0.02,-0.02 0.02,-0.02 0.03,-0.03 0,-0.01 -0.01,-0.06 -0.01,-0.07 0,0.01 0,0.01 0,0.01l-0.02 0.01c-0.03,0.02 -0.04,0.03 -0.07,0.04l-0.03 0.01c-0.01,0.01 0,0.01 -0.01,0.01z"/>
   <path class="fil7" d="M0.44 0.66c0.01,0.01 0.01,0.01 0.02,0.02 0.04,0.03 0.1,0.05 0.16,0.04 0,-0.03 0,-0.04 0.01,-0.05 -0.04,-0.01 -0.04,0 -0.05,0 -0.01,0 -0.01,-0.02 -0.03,-0.02 -0.01,-0.01 -0.02,0 -0.03,-0.01 -0.01,-0.01 -0.02,-0.01 -0.03,-0.01l-0.03 0.02c0,0 -0.01,0.01 -0.02,0.01z"/>
   <path class="fil0" d="M0.09 0.91c0,0.01 0,0.02 0.01,0.03 0,0.01 0.01,0.02 0.02,0.02 0,0.01 0.03,0.04 0.04,0.03 0,0 0.01,0 0.01,0 0,0 0,0 0,0 0,-0.01 0.01,-0.04 0.01,-0.05 0,-0.02 0,-0.03 0,-0.04 0,-0.01 -0.01,-0.02 -0.01,-0.03 -0.02,0 -0.03,0 -0.05,0.01 -0.01,0.01 -0.03,0.02 -0.03,0.03z"/>
   <path class="fil3" d="M0.4 0.9c0.01,0.01 0.01,0.01 0.02,0.02 0,0 0,0.01 0.01,0.01 0,0.01 0.01,0.03 0.01,0.04 0.01,0 0.01,0.02 0.01,0.03 0,0 0,0.02 0,0.02 0.02,0 0.04,-0.01 0.05,-0.02 0.01,-0.01 0.01,-0.01 0.01,-0.02 0,0 -0.01,-0.03 -0.01,-0.03 0,-0.01 -0.01,-0.02 -0.02,-0.03 0,-0.01 0,-0.01 -0.01,-0.01 0,-0.01 -0.01,-0.02 -0.02,-0.02 -0.01,-0.01 0,0 -0.01,-0.01 0,0.01 -0.01,0.01 -0.01,0.01 -0.01,0.01 -0.02,0.01 -0.03,0.01z"/>
   <path class="fil0" d="M0.25 1.01l0.01 0c0.02,0 0.04,0 0.06,0l0 -0.02c0,-0.02 -0.01,-0.04 -0.01,-0.05 -0.01,-0.01 -0.01,-0.01 -0.01,-0.02 -0.01,-0.01 -0.01,-0.01 -0.01,-0.02l-0.05 -0.01 -0.01 0c0.01,0 0,0 0.01,0 0,0 0,0.01 0,0.01 0.01,0.01 0.01,0.03 0.01,0.04 0.01,0.01 0.01,0.02 0.01,0.04 0,0.01 -0.01,0.02 -0.01,0.03z"/>
   <path class="fil3" d="M0.95 0.95c0,0.01 0.01,0.06 0.01,0.07 0.01,0 0.01,-0.01 0.02,-0.01 0,0 0,-0.01 0.01,-0.01 0,-0.01 0.01,-0.02 0.02,-0.03l-0.02 -0.04c-0.01,-0.02 -0.05,-0.09 -0.08,-0.09 0,0.01 0.01,0.02 0.01,0.03 0.01,0.01 0.03,0.06 0.03,0.08z"/>
   <path class="fil3" d="M0.8 0.04c-0.01,0 -0.07,-0.01 -0.08,0 0.01,0 0,0 0.01,0 -0.01,0.01 -0.03,0.04 -0.03,0.05 -0.01,0.02 -0.02,0.05 -0.01,0.06 0.02,0 0.03,-0.01 0.03,-0.02l0.03 -0.03c0,-0.01 0.01,-0.01 0.01,-0.02 0.02,-0.02 0.02,-0.02 0.04,-0.04 0,0 0,0 0,0z"/>
   <path class="fil1" d="M0.95 0.18c0,0.01 0.01,0.01 0.01,0.02l0.01 0.02c0.02,0.01 0.05,0.02 0.06,0.02 0,0 -0.01,0 0,0 0.01,0 0,0 0.01,0 0,-0.02 0,-0.03 0,-0.05 0,-0.02 0,-0.02 0,-0.03 0,-0.01 0,-0.02 -0.01,-0.02 -0.02,0 -0.07,0.03 -0.08,0.04z"/>
   <path class="fil1" d="M0.49 0.17c0.01,0 0.01,0 0.01,0 0.01,0 0.02,-0.01 0.02,-0.01 0.01,0 0.01,0 0.01,0 0,0 0,0 0,0 0,0 0,0 0,0l0.01 -0.01c0,0 0,0 0,0l0.01 0c0,0 0.01,0.01 0.01,-0.01 0,0 0,-0.01 -0.01,-0.01l0 -0.02c-0.01,-0.01 0,0 -0.01,-0.01 0,0 0,0 0,-0.01 0,0 0,0 0,0 -0.01,-0.01 -0.02,-0.03 -0.02,-0.03 -0.01,-0.01 0,-0.01 -0.02,-0.01l-0.01 -0.01c-0.01,0.04 0,0.08 0,0.13z"/>
   <path class="fil6" d="M0.14 1.05c0,-0.01 0,-0.01 0.01,-0.02 0,0 0,0 0,-0.01 0.01,-0.01 0.01,-0.02 0.02,-0.03 0,0 0,0 0,0 0,0 -0.01,0 -0.01,0 -0.01,0.01 -0.04,-0.02 -0.04,-0.03 -0.01,0 -0.02,-0.01 -0.02,-0.02 -0.01,-0.01 -0.01,-0.02 -0.01,-0.03 -0.01,0.01 -0.02,0.03 -0.02,0.04 0,0.02 0,0.03 0.01,0.05 0.01,0.02 0.03,0.04 0.06,0.05z"/>
   <path class="fil3" d="M1.11 0.52l0 0c0,-0.01 0,0 0,0 0,-0.01 0,-0.01 0,-0.01 0,0 0,0 0,-0.01l0.02 -0.04c-0.04,0.01 -0.14,0 -0.15,0.01 0,0.01 0.01,0.02 0.02,0.02 0.02,0.01 0.05,0.02 0.07,0.02 0.01,0 0.04,0.01 0.04,0.01z"/>
   <path class="fil6" d="M0.5 0.95c0,0 0.01,0.03 0.01,0.03 0.02,0.01 0.01,0.01 0.02,0.02 0.03,0.02 0.11,0.04 0.15,0.05l-0.01 -0.01c-0.02,0 -0.05,-0.02 -0.06,-0.04 -0.01,0 -0.01,-0.02 -0.01,-0.02 -0.01,0 0,0 -0.01,0 0,0 0,0 0,0l-0.06 -0.03c-0.01,-0.01 -0.01,-0.01 -0.02,-0.01 0,0 0,0 0,0.01 -0.01,0 0,0 -0.01,0z"/>
   <path class="fil3" d="M1.02 0.97c0.01,-0.01 0.03,-0.06 0.03,-0.07 0,0 0,-0.01 -0.01,-0.02 -0.01,-0.02 -0.04,-0.09 -0.07,-0.09 0,0.01 0,0.02 0.01,0.02 0.01,0.02 0.01,0.04 0.02,0.06 0,0.02 0.02,0.09 0.02,0.1z"/>
   <path class="fil2" d="M0.81 0.37l-0.02 -0.02c-0.06,-0.06 -0.11,0.03 -0.07,0.06 0.03,0.02 0.05,0.02 0.07,-0.01 0.01,-0.01 0.01,-0.02 0.02,-0.03z"/>
   <path class="fil1" d="M0.84 0.51c0.01,0 0.02,0 0.02,0 0.01,0 0.01,0 0.01,0 0.01,-0.01 0,0 0.01,-0.01 0,0 0,0 0,0 0.01,-0.01 0.01,-0.01 0.01,-0.02 -0.01,-0.01 -0.01,-0.01 -0.01,-0.01 -0.01,-0.01 -0.01,-0.01 -0.02,-0.01 0,0 -0.01,0 -0.01,0 -0.01,0 -0.02,0 -0.03,0 -0.01,0 -0.03,0 -0.04,0.01 -0.01,0.01 0,0.02 0,0.03 0,0 0,0 0,0 0,0 0,0 0,0 0,0 0,0 0,0 0.01,0.01 0.04,0.01 0.06,0.01z"/>
   <path class="fil3" d="M1.13 0.43c0,0 0.01,-0.07 0,-0.08l0 0.02c-0.01,0.01 -0.04,0.01 -0.06,0.02 -0.02,0 -0.05,0.01 -0.07,0.01 0,0.01 0.02,0.02 0.03,0.02 0.03,0.01 0.07,0.01 0.1,0.01l0 0z"/>
   <path class="fil3" d="M0.9 0.05c-0.01,0 -0.05,-0.01 -0.06,-0.01 -0.07,0.07 -0.06,0.11 -0.02,0.08 0.01,-0.01 0.02,-0.02 0.03,-0.02 0.01,-0.01 0.03,-0.03 0.04,-0.04 0.01,0 0.01,0 0.01,-0.01z"/>
   <path class="fil0" d="M0.35 0.91c0,0 0.04,0.04 0.04,0.08 0.01,0 0.02,-0.01 0.03,-0.01 0,0 0.01,0 0.01,0 0.01,-0.01 0.01,0 0.01,-0.01 0,-0.01 -0.01,-0.03 -0.01,-0.04 -0.01,0 -0.01,-0.01 -0.01,-0.01 -0.01,-0.01 -0.01,-0.01 -0.02,-0.02 -0.01,0.01 -0.03,0.01 -0.05,0.01z"/>
   <path class="fil8" d="M0.92 0.78c0.01,0 0.02,-0.01 0.03,-0.01 0.01,-0.01 0.01,-0.01 0.02,0 0,-0.01 0,0 0,-0.01l0.01 0c0.01,-0.03 0.01,-0.03 0.01,-0.06l-0.02 0c0,0.01 -0.01,0.01 -0.02,0.01 0,-0.01 0,-0.02 -0.01,-0.02 0,-0.01 0,-0.01 0,-0.01 -0.01,0.02 0,0.02 -0.01,0.05 0,0.01 0,0.02 0,0.02 -0.01,0.01 -0.01,0.02 -0.01,0.03z"/>
   <path class="fil6" d="M0.25 1.01c0,0.01 0,0.02 0,0.03 0,0 -0.01,0.01 -0.01,0.02 0.01,0 0.02,0 0.03,0 0.01,0 0.02,0 0.03,0 0.01,0 0.01,0 0.01,0l0.01 -0.03c0,-0.01 0,-0.03 0,-0.04l0 0.02c-0.02,0 -0.04,0 -0.06,0l-0.01 0z"/>
   <path class="fil1" d="M0.26 0.73c-0.01,0.01 -0.03,0.04 -0.02,0.06 0,0.01 0.01,0.01 0.02,0 0,-0.01 0.01,-0.02 0.02,-0.02 0.01,0.01 0.02,0.01 0.03,0.02 0.02,0 -0.01,-0.07 -0.05,-0.06z"/>
   <path class="fil1" d="M0.64 0.9c0,0 0.01,0 0.01,0 0,0 0.01,0 0.01,0 0,0 0.01,0 0.01,0.01 0.01,0 0.02,0 0.01,-0.02 0,-0.02 -0.02,-0.03 -0.04,-0.03 -0.03,0 -0.04,0.04 -0.03,0.06 0.02,0.01 0.02,-0.02 0.03,-0.02z"/>
   <path class="fil6" d="M0.39 0.99c0.01,0.01 0.01,0.04 0.01,0.06 0.01,-0.01 0.05,-0.02 0.05,-0.03 0,0 0,-0.02 0,-0.02 0,-0.01 0,-0.03 -0.01,-0.03 0,0.01 0,0 -0.01,0.01 0,0 -0.01,0 -0.01,0 -0.01,0 -0.02,0.01 -0.03,0.01z"/>
   <path class="fil9" d="M0.55 0.44c0.01,0 0.01,0 0.02,0 0.01,0 0,0 0.01,0 0.02,0.01 0.02,-0.01 0.04,0 0,0 0,0 0,0l0.01 0.01c0.01,0 0.01,0 0.01,0 0,0.01 0,0.01 0,0.01 0.01,0 0.01,0 0.01,0 0.01,0 0.01,0 0.01,0 0.01,0.01 0.01,0.01 0.02,0.01l0 0c0.02,0 0.01,-0.01 0.01,-0.01 0,0 -0.06,-0.01 -0.07,-0.03 0.01,0 0.04,0 0.03,-0.02 -0.01,0 -0.01,0 -0.01,0 0,0 0,-0.01 -0.01,-0.01 -0.02,-0.01 -0.02,0 -0.03,0 0,0 0,0 0,0 -0.01,0.01 0.01,0.02 0.01,0.03 -0.04,0.02 -0.06,-0.01 -0.07,0 -0.01,0.01 0.01,0.01 0.01,0.01z"/>
   <path class="fil6" d="M0.85 0.73c0,0.01 0,0.02 -0.01,0.03 0,0.02 0,0.02 -0.01,0.03 0.02,0 0.03,0 0.05,0 0,-0.01 0.01,-0.02 0.01,-0.03 0,-0.02 0,-0.03 0,-0.04l-0.03 0.01c-0.01,0 -0.01,0 -0.01,0z"/>
   <path class="fil9" d="M0.95 0.18c0.01,-0.01 0.06,-0.04 0.08,-0.04 0.01,0 0.01,0.01 0.01,0.02 0,0.01 0,0.01 0,0.03 0,0.02 0,0.03 0,0.05 0,0.01 0,0.01 0.01,0.01 0,-0.01 0.01,-0.05 0.01,-0.06 0,-0.01 0,-0.05 -0.02,-0.06 -0.02,0 -0.04,0.01 -0.05,0.02 -0.01,0 -0.01,0 -0.01,0 -0.02,0.01 -0.05,0.02 -0.03,0.03z"/>
   <path class="fil10" d="M0.63 0.53c0.01,-0.03 -0.01,-0.06 -0.04,-0.03 -0.02,0.02 -0.01,0.05 0.01,0.05 0.02,0.01 0.03,-0.01 0.03,-0.02z"/>
   <path class="fil4" d="M0.82 0.61c0,-0.01 0,-0.01 0,-0.02 -0.01,-0.01 -0.01,-0.01 -0.01,-0.01 -0.01,0 -0.04,0.01 -0.05,0.01 -0.02,0 -0.04,0 -0.06,0l0.01 0.02c0.04,0 0.06,0.01 0.11,0z"/>
   <path class="fil10" d="M0.69 0.6l-0.01 -0.06c-0.03,-0.01 -0.05,0.01 -0.04,0.04 0,0.01 0.01,0.02 0.02,0.02 0.01,0.01 0.02,0 0.03,0z"/>
   <path class="fil3" d="M0.63 0.06l0 0c0,0.01 0,0.02 -0.01,0.03 0,0.01 0,0.01 0.01,0.02 0.01,0 0.01,0 0.02,-0.01 0,-0.01 0.01,-0.01 0.01,-0.02 0.01,-0.01 0.02,-0.01 0.02,-0.02l0.02 -0.02c0,0 0,0 0,0 -0.01,0 -0.02,0.01 -0.04,0.01 -0.01,0 -0.02,0.01 -0.03,0.01z"/>
   <path class="fil10" d="M0.53 0.63c0.01,-0.01 0.01,-0.03 0.01,-0.04 0,-0.01 -0.01,-0.02 -0.01,-0.02 -0.01,-0.01 -0.02,-0.01 -0.03,-0.01 0.01,0.02 0,0.04 0,0.05l0 0c0.02,0.01 0.02,0.02 0.03,0.02z"/>
   <path class="fil1" d="M0.63 0.76c-0.03,0.01 -0.02,0.07 0.01,0.06 0.02,-0.01 0.01,-0.07 -0.01,-0.06z"/>
   <path class="fil1" d="M0.26 0.63c-0.01,0.01 -0.01,0.01 -0.01,0.02 -0.01,0.01 -0.01,0.05 0.02,0.05 0.02,-0.01 0.01,-0.08 -0.01,-0.07z"/>
   <path class="fil3" d="M0.89 0.72c0,0.01 0,0.02 0,0.04 0,0.01 -0.01,0.02 -0.01,0.03l0.03 -0.01c0,-0.02 0.01,-0.03 0,-0.05 0,-0.01 0,-0.04 -0.01,-0.04l-0.01 0.03z"/>
   <path class="fil10" d="M0.56 0.64c0.01,0 0.01,0 0.01,0 0.01,0.01 0.01,0.01 0.02,0.01 0.01,0 0.02,0 0.03,0 0,-0.01 0.01,-0.02 0,-0.03 -0.01,-0.01 -0.03,-0.01 -0.05,0 -0.01,0.01 0,0.01 -0.01,0.02z"/>
   <path class="fil0" d="M0.46 0.47c-0.02,0 -0.04,0.02 -0.04,0.03 0.05,0.01 0.04,0.01 0.06,0.02l0.01 -0.01c-0.01,-0.01 -0.01,-0.01 -0.02,-0.02 0,-0.01 -0.01,-0.02 -0.01,-0.02z"/>
   <path class="fil1" d="M0.3 0.67c-0.02,0.01 -0.01,0.06 0.01,0.06 0.02,-0.01 0.02,-0.07 -0.01,-0.06z"/>
   <path class="fil1" d="M0.67 0.8c-0.02,0.01 -0.01,0.06 0.01,0.05 0.02,-0.01 0.02,-0.07 -0.01,-0.05z"/>
   <path class="fil1" d="M0.59 0.85c0,0.03 0.03,0.02 0.02,-0.01 0,-0.03 -0.03,-0.02 -0.02,0.01z"/>
   <path class="fil1" d="M0.23 0.7c-0.02,0.01 -0.02,0.05 0,0.05 0.02,-0.01 0.02,-0.06 0,-0.05z"/>
   <path class="fil2" d="M0.56 0.29c0.02,0.01 0.04,0.04 0.03,0.06 0,0.02 -0.01,0.02 -0.02,0.03 -0.03,0.01 -0.05,0 -0.06,-0.02 -0.01,-0.01 -0.01,-0.02 -0.01,-0.02 0,-0.01 0,-0.01 0,-0.02 0,0 0.01,-0.01 0.01,-0.01 0,0 0,0 0.01,0 0.01,-0.01 0.02,-0.02 0.04,-0.02z"/>
   <circle class="fil11" cx="0.55" cy="0.35" r="0.02"/>
   <circle class="fil11" cx="0.74" cy="0.39" r="0.02"/>
   <circle class="fil12" transform="matrix(0.0217459 -0.0147311 0.0115082 0.0169882 0.565555 0.328458)" r="0.43"/>
   <circle class="fil12" transform="matrix(0.0217459 -0.0147311 0.0115082 0.0169882 0.767031 0.369711)" r="0.43"/>
  </g>
 </g>
</svg>
